<svg width="48" height="48" viewBox="0 0 48 48" fill="none" xmlns="http://www.w3.org/2000/svg">
<path d="M19.2 21.1999C19.2 20.0954 20.0954 19.2 21.2 19.2H26.8C27.9045 19.2 28.7999 20.0954 28.7999 21.2V26.8C28.7999 27.9045 27.9045 28.7999 26.8 28.7999H21.1999C20.0954 28.7999 19.2 27.9045 19.2 26.8V21.1999Z" fill="#6486FF"/>
<path d="M0 14.4283C0 12.6465 2.15428 11.7542 3.41421 13.0141L9.01421 18.6141C9.38929 18.9892 9.6 19.4979 9.6 20.0283V28.7999V36.3999C9.6 37.5045 10.4954 38.3999 11.6 38.3999H27.9716C28.502 38.3999 29.0107 38.6106 29.3858 38.9857L34.9858 44.5857C36.2457 45.8456 35.3534 47.9999 33.5716 47.9999H2C0.89543 47.9999 0 47.1045 0 45.9999V28.7999V14.4283Z" fill="#475569"/>
<path d="M14.4283 0C12.6465 0 11.7542 2.15428 13.0141 3.41421L18.6141 9.01421C18.9892 9.38929 19.4979 9.6 20.0283 9.6H36.3999C37.5045 9.6 38.3999 10.4954 38.3999 11.6L38.3999 27.9716C38.3999 28.502 38.6106 29.0107 38.9857 29.3858L44.5857 34.9858C45.8456 36.2457 47.9999 35.3534 47.9999 33.5716V2C47.9999 0.895431 47.1045 0 45.9999 0H14.4283Z" fill="#475569"/>
</svg>
